<svg width="117" height="104" viewBox="0 0 117 104" fill="none" xmlns="http://www.w3.org/2000/svg">
<g filter="url(#filter0_d_87690_4328)">
<rect x="20.9836" y="18.2461" width="66.6" height="66.6" rx="12.7726" fill="#D9D9D9"/>
<rect x="20.9836" y="18.2461" width="66.6" height="66.6" rx="12.7726" fill="#A68272"/>
</g>
<path d="M43.4179 36.9877C43.4179 36.6574 43.6863 36.389 44.0166 36.389H59.5084C59.8387 36.389 60.1071 36.6574 60.1071 36.9877C60.1071 37.318 59.8387 37.5864 59.5084 37.5864H44.0166C43.6863 37.5864 43.4179 37.318 43.4179 36.9877ZM44.0166 43.8171H64.9707C65.301 43.8171 65.5694 43.5487 65.5694 43.2184C65.5694 42.8881 65.301 42.6196 64.9707 42.6196H44.0166C43.6863 42.6196 43.4179 42.8881 43.4179 43.2184C43.4179 43.5487 43.6863 43.8171 44.0166 43.8171ZM77.0348 73.3407C76.8222 74.2857 76.2195 75.105 75.3813 75.5879C74.8495 75.8953 74.2468 76.0529 73.6411 76.0529C73.2938 76.0529 72.9456 76.001 72.6083 75.8963C71.7671 75.6338 71.1045 75.07 70.7423 74.3087L68.2416 69.043H38.4376C38.1073 69.043 37.8389 68.7745 37.8389 68.4442V28.5528C37.8389 28.2225 38.1073 27.9541 38.4376 27.9541H64.0377V27.9551C64.1933 27.9551 64.347 28.015 64.4608 28.1287L70.6076 34.2755C70.7223 34.3903 70.7812 34.543 70.7812 34.6986H70.7822V47.0891C73.0922 49.0748 74.5571 52.0165 74.5571 55.2945C74.5571 58.3689 73.2689 61.1469 71.2033 63.1187L76.5917 70.9299C77.0717 71.6254 77.2284 72.4806 77.0348 73.3407ZM63.7393 45.6731C58.4337 45.6731 54.1179 49.9898 54.1179 55.2945C54.1179 60.5991 58.4347 64.9158 63.7393 64.9158C69.0439 64.9158 73.3607 60.5991 73.3607 55.2945C73.3607 49.9898 69.0449 45.6731 63.7393 45.6731ZM64.6364 34.1009H68.7386L64.6364 29.9987V34.1009ZM67.6739 67.8445L66.661 65.7131C65.731 65.9745 64.7511 66.1143 63.7393 66.1143C60.5432 66.1143 57.6663 64.7202 55.6836 62.509H44.0166C43.6863 62.509 43.4179 62.2406 43.4179 61.9103C43.4179 61.58 43.6863 61.3116 44.0166 61.3116H54.7506C53.7667 59.8467 53.1321 58.1284 52.9644 56.2783H44.0166C43.6863 56.2783 43.4179 56.0099 43.4179 55.6796C43.4179 55.3493 43.6863 55.0809 44.0166 55.0809H52.9225C52.9584 53.2578 53.4474 51.5445 54.2806 50.0477H44.0166C43.6863 50.0477 43.4179 49.7793 43.4179 49.449C43.4179 49.1187 43.6863 48.8503 44.0166 48.8503H55.0539C57.0277 46.198 60.1859 44.4767 63.7383 44.4767C65.8907 44.4767 67.8974 45.1083 69.5848 46.196V35.2983H64.0367C63.7064 35.2983 63.438 35.0299 63.438 34.6996V29.1515H39.0363V67.8445H67.6739ZM75.6068 71.6115L70.2883 63.901C69.5309 64.4788 68.6957 64.9587 67.8006 65.3229L71.824 73.7958C72.0405 74.2518 72.4456 74.5921 72.9635 74.7537C73.5612 74.9393 74.2408 74.8645 74.7816 74.5522C75.3225 74.2398 75.7276 73.689 75.8653 73.0783C75.986 72.5474 75.8932 72.0266 75.6068 71.6115ZM63.7393 48.8982C61.6368 48.8982 59.9275 50.6085 59.9275 52.71C59.9275 53.0403 60.1959 53.3087 60.5262 53.3087C60.8565 53.3087 61.1249 53.0403 61.1249 52.71C61.1249 51.2681 62.2974 50.0956 63.7393 50.0956C65.1812 50.0956 66.3537 51.2681 66.3537 52.71C66.3537 53.8356 65.6372 54.8324 64.5705 55.1897C63.7014 55.4811 63.1406 56.2604 63.1406 57.1764V58.6243C63.1406 58.9546 63.409 59.223 63.7393 59.223C64.0696 59.223 64.338 58.9546 64.338 58.6243V57.1764C64.338 56.7773 64.5725 56.451 64.9507 56.3242C66.5064 55.8034 67.5511 54.3505 67.5511 52.709C67.5511 50.6085 65.8408 48.8982 63.7393 48.8982ZM63.7393 60.4843C63.409 60.4843 63.1406 60.7528 63.1406 61.083V61.094C63.1406 61.4243 63.409 61.6927 63.7393 61.6927C64.0696 61.6927 64.338 61.4243 64.338 61.094V61.083C64.338 60.7518 64.0696 60.4843 63.7393 60.4843Z" fill="white"/>
<defs>
<filter id="filter0_d_87690_4328" x="-7.66348" y="-6.75171" width="123.894" height="123.894" filterUnits="userSpaceOnUse" color-interpolation-filters="sRGB">
<feFlood flood-opacity="0" result="BackgroundImageFix"/>
<feColorMatrix in="SourceAlpha" type="matrix" values="0 0 0 0 0 0 0 0 0 0 0 0 0 0 0 0 0 0 127 0" result="hardAlpha"/>
<feOffset dy="3.64931"/>
<feGaussianBlur stdDeviation="14.3236"/>
<feComposite in2="hardAlpha" operator="out"/>
<feColorMatrix type="matrix" values="0 0 0 0 0.854902 0 0 0 0 0.686275 0 0 0 0 0.584314 0 0 0 1 0"/>
<feBlend mode="normal" in2="BackgroundImageFix" result="effect1_dropShadow_87690_4328"/>
<feBlend mode="normal" in="SourceGraphic" in2="effect1_dropShadow_87690_4328" result="shape"/>
</filter>
</defs>
</svg>
